<svg width="24" height="25" viewBox="0 0 24 25" fill="none" xmlns="http://www.w3.org/2000/svg">
<g id="call">
<path id="Vector" d="M18.3284 22.9996C17.4134 22.9996 16.1281 22.6686 14.2034 21.5933C11.8629 20.2808 10.0526 19.0691 7.72481 16.7474C5.48044 14.5044 4.38825 13.0522 2.85965 10.2707C1.13278 7.13003 1.42715 5.48378 1.75622 4.78019C2.14809 3.93925 2.72653 3.43628 3.47419 2.93707C3.89885 2.65883 4.34825 2.42032 4.81669 2.22457C4.86356 2.20441 4.90716 2.18519 4.94606 2.16785C5.17809 2.06332 5.52965 1.90535 5.97497 2.0741C6.27216 2.18566 6.53747 2.41394 6.95278 2.8241C7.8045 3.6641 8.9684 5.53488 9.39778 6.45363C9.68606 7.07285 9.87684 7.4816 9.87731 7.94003C9.87731 8.47675 9.60731 8.89066 9.27966 9.33738C9.21825 9.42128 9.15731 9.50144 9.09825 9.57925C8.74153 10.048 8.66325 10.1835 8.71481 10.4253C8.81934 10.9114 9.59887 12.3585 10.88 13.6368C12.1611 14.915 13.5664 15.6453 14.0543 15.7494C14.3065 15.8033 14.4448 15.7218 14.9286 15.3524C14.9979 15.2994 15.0692 15.2446 15.1437 15.1897C15.6434 14.818 16.0381 14.555 16.5622 14.555H16.565C17.0211 14.555 17.4115 14.7528 18.0584 15.0791C18.9022 15.5047 20.8292 16.6536 21.6743 17.5063C22.0854 17.9207 22.3147 18.185 22.4267 18.4818C22.5954 18.9285 22.4365 19.2786 22.3329 19.513C22.3156 19.5519 22.2964 19.5946 22.2762 19.6419C22.0789 20.1095 21.839 20.558 21.5595 20.9816C21.0612 21.7269 20.5564 22.3039 19.7136 22.6963C19.2808 22.901 18.8071 23.0047 18.3284 22.9996Z" fill="#E97862"/>
</g>
</svg>
